<?xml version="1.0" standalone="no"?>
<!DOCTYPE svg PUBLIC "-//W3C//DTD SVG 20010904//EN"
 "http://www.w3.org/TR/2001/REC-SVG-20010904/DTD/svg10.dtd">
<svg version="1.0" xmlns="http://www.w3.org/2000/svg"
 width="194.000000pt" height="44.000000pt" viewBox="0 0 194.000000 44.000000"
 preserveAspectRatio="xMidYMid meet">

<g transform="translate(0.000000,44.000000) scale(0.100000,-0.100000)"
fill="#000000" stroke="none">
<path d="M225 413 c-53 -9 -67 -16 -100 -45 -49 -42 -68 -83 -67 -144 0 -62
18 -100 66 -142 87 -76 231 -47 287 58 21 39 25 113 8 157 -12 31 -54 79 -84
96 -25 13 -84 24 -110 20z m27 -74 c15 -8 22 -8 28 1 5 8 14 3 29 -16 27 -34
29 -109 4 -136 -14 -16 -15 -22 -4 -40 9 -15 10 -23 1 -32 -6 -6 -10 -6 -9 -1
2 6 0 20 -5 32 -5 15 -2 30 8 45 9 12 16 37 16 55 0 35 -18 83 -32 83 -5 0 -2
-13 7 -30 21 -40 19 -72 -6 -103 -16 -22 -18 -30 -9 -48 16 -30 2 -38 -20 -11
-23 28 -50 29 -50 2 0 -11 -4 -20 -10 -20 -6 0 -10 45 -10 115 0 110 1 115 21
115 11 0 30 -5 41 -11z m-12 -209 c0 -5 -4 -10 -10 -10 -5 0 -10 5 -10 10 0 6
5 10 10 10 6 0 10 -4 10 -10z"/>
<path d="M210 250 c0 -77 12 -88 50 -50 39 39 16 120 -33 120 -14 0 -17 -11
-17 -70z m32 -2 c-2 -27 -8 -48 -13 -48 -10 0 -12 93 -2 104 13 13 20 -10 15
-56z"/>
<path d="M1550 375 c0 -8 7 -15 15 -15 8 0 15 7 15 15 0 8 -7 15 -15 15 -8 0
-15 -7 -15 -15z"/>
<path d="M567 299 c-9 -5 -24 -23 -32 -39 -41 -78 8 -160 95 -160 40 0 80 19
73 36 -4 10 -10 11 -23 4 -49 -26 -120 1 -120 46 0 23 2 24 75 24 61 0 75 3
75 15 0 25 -27 72 -45 79 -25 9 -78 7 -98 -5z m89 -34 c14 -14 22 -30 19 -35
-9 -15 -115 -13 -115 3 0 17 12 32 35 45 28 16 33 15 61 -13z"/>
<path d="M760 280 c0 -32 23 -42 34 -15 4 10 20 15 51 15 l46 0 -66 -77 c-36
-42 -65 -82 -65 -90 0 -10 21 -13 90 -13 l90 0 0 30 c0 33 -16 39 -34 14 -8
-11 -24 -14 -54 -12 l-41 3 59 70 c83 98 81 105 -25 105 l-85 0 0 -30z"/>
<path d="M1004 295 c-22 -16 -18 -17 51 -19 43 -1 50 -4 53 -23 3 -18 -3 -22
-40 -28 -61 -10 -88 -29 -88 -65 0 -15 7 -36 16 -44 21 -21 73 -20 97 1 18 17
19 17 28 0 12 -21 59 -23 59 -2 0 8 -6 15 -14 15 -10 0 -15 19 -18 69 -5 87
-23 111 -83 111 -22 0 -50 -7 -61 -15z m104 -112 c-6 -50 -76 -78 -92 -37 -9
22 4 42 32 53 49 17 64 14 60 -16z"/>
<path d="M1220 296 c0 -7 9 -16 20 -19 17 -4 20 -14 20 -72 0 -58 -3 -68 -20
-72 -11 -3 -20 -12 -20 -19 0 -10 14 -14 50 -14 38 0 50 4 50 15 0 8 -7 15
-15 15 -11 0 -15 12 -15 50 0 41 5 56 25 75 13 14 36 25 50 25 33 0 45 -31 45
-116 l0 -64 30 0 c20 0 30 5 30 15 0 8 -7 15 -15 15 -12 0 -15 14 -15 68 0 83
-16 112 -64 112 -18 0 -45 -9 -59 -20 -25 -20 -25 -20 -30 0 -6 24 -67 29 -67
6z"/>
<path d="M1510 296 c0 -7 9 -16 20 -19 17 -4 20 -14 20 -72 0 -58 -3 -68 -20
-72 -11 -3 -20 -12 -20 -19 0 -10 14 -14 50 -14 38 0 50 4 50 15 0 8 -7 15
-15 15 -12 0 -15 17 -15 90 l0 90 -35 0 c-23 0 -35 -5 -35 -14z"/>
<path d="M1670 290 c0 -13 7 -20 20 -20 13 0 20 7 20 20 0 13 -7 20 -20 20
-13 0 -20 -7 -20 -20z"/>
<path d="M1670 120 c0 -13 7 -20 20 -20 13 0 20 7 20 20 0 13 -7 20 -20 20
-13 0 -20 -7 -20 -20z"/>
</g>
</svg>
